<?xml version="1.0" standalone="no"?>
<!DOCTYPE svg PUBLIC "-//W3C//DTD SVG 20010904//EN"
 "http://www.w3.org/TR/2001/REC-SVG-20010904/DTD/svg10.dtd">
<svg version="1.0" xmlns="http://www.w3.org/2000/svg"
 width="507.000000pt" height="507.000000pt" viewBox="0 0 507.000000 507.000000"
 preserveAspectRatio="xMidYMid meet">
<metadata>
Created by potrace 1.14, written by Peter Selinger 2001-2017
</metadata>
<g transform="translate(0.000000,507.000000) scale(0.100000,-0.100000)"
fill="#000000" stroke="none">
<path d="M1541 4948 c30 -73 47 -142 55 -213 4 -33 11 -70 15 -83 14 -37 52
-233 46 -238 -3 -3 -38 18 -80 46 -68 46 -219 120 -246 120 -25 0 -7 -21 72
-80 86 -66 253 -253 295 -331 18 -35 22 -58 22 -136 0 -75 6 -110 29 -183 16
-49 26 -91 24 -94 -14 -14 -119 12 -199 49 l-91 42 -40 74 c-57 103 -123 159
-188 159 -32 0 -32 -11 3 -37 32 -23 127 -191 148 -259 19 -63 36 -80 102 -99
88 -26 286 -129 316 -166 24 -28 26 -38 21 -73 -13 -73 -33 -106 -119 -189
-68 -66 -86 -91 -96 -127 -7 -25 -28 -76 -48 -114 -41 -78 -72 -103 -176 -140
-38 -14 -70 -27 -73 -29 -2 -3 10 -15 27 -27 27 -19 30 -26 25 -54 -4 -17 -20
-53 -37 -80 -32 -54 -31 -81 5 -73 132 34 147 35 162 20 20 -19 29 -57 21 -88
-5 -19 -20 -32 -52 -46 -81 -34 -166 -59 -204 -59 -28 0 -39 -5 -43 -18 -5
-20 -43 -32 -106 -33 -33 0 -31 -2 27 -20 35 -11 66 -27 69 -35 4 -10 22 -14
67 -14 73 0 270 -65 262 -87 -7 -17 -3 -16 74 7 36 11 89 21 119 21 30 1 70 7
90 14 35 13 35 14 7 14 -15 1 -54 8 -86 16 -39 10 -66 12 -82 6 -38 -14 -62 7
-66 56 -3 35 -1 41 15 40 12 -1 17 4 17 16 -1 11 4 16 15 15 10 -2 15 3 13 12
-3 12 -1 12 9 3 9 -9 15 -8 27 3 8 8 24 14 36 13 29 -3 57 11 49 24 -4 6 0 8
10 4 10 -3 17 -2 17 3 0 6 6 10 13 10 6 0 18 4 26 9 12 8 12 12 2 25 -11 13
-9 14 13 10 19 -3 26 0 26 11 0 8 5 15 11 15 5 0 8 4 4 10 -3 5 8 16 25 25 16
8 30 19 30 24 0 5 20 14 44 20 49 12 98 1 94 -21 -2 -6 6 -14 17 -16 11 -2 23
-10 28 -17 9 -16 31 -10 132 33 84 36 270 98 323 108 l37 7 -28 -27 c-15 -14
-37 -26 -48 -26 -10 0 -19 -4 -19 -8 0 -5 -17 -17 -38 -26 -50 -23 -103 -65
-81 -66 9 0 36 11 60 24 75 41 142 73 200 96 52 20 64 21 150 11 89 -10 129
-24 98 -35 -33 -12 -215 -46 -245 -46 -44 0 -229 -99 -275 -147 -27 -29 -36
-47 -37 -75 -1 -26 3 -38 12 -38 8 0 16 -5 18 -12 6 -16 143 -26 193 -14 21 5
27 0 47 -44 26 -56 20 -54 158 -51 41 0 93 7 115 15 41 15 56 9 68 -28 4 -11
25 -3 82 33 17 11 42 20 58 20 36 1 35 21 -4 55 -42 38 -27 54 36 36 25 -7 48
-17 51 -22 3 -4 22 -15 41 -23 20 -9 56 -31 79 -50 23 -19 46 -35 50 -35 13 0
178 -174 193 -204 8 -15 30 -44 48 -66 18 -21 33 -43 33 -49 0 -6 18 -31 41
-55 58 -64 65 -99 35 -179 -13 -35 -32 -79 -41 -97 -15 -29 -19 -31 -52 -25
-19 3 -43 10 -52 15 -55 30 -184 86 -244 106 -78 27 -217 57 -224 50 -3 -3 8
-8 23 -12 32 -7 178 -55 234 -76 53 -21 202 -98 229 -119 37 -29 146 -21 246
17 10 4 -25 -37 -78 -91 -53 -54 -97 -103 -97 -109 0 -13 -20 -27 -99 -68
l-53 -28 43 -1 c74 -2 103 2 139 19 57 26 79 46 69 64 -11 19 4 33 57 51 27
10 40 21 45 40 4 14 24 47 46 73 27 34 34 49 24 52 -7 2 -21 12 -31 22 -12 12
-22 15 -31 9 -8 -5 -21 -9 -29 -9 -11 1 -10 5 5 18 28 23 79 92 69 92 -4 0 2
10 13 22 12 13 26 40 32 62 6 25 24 51 51 73 54 47 72 83 64 132 -6 37 -10 41
-80 75 -60 30 -83 49 -126 103 -29 36 -88 104 -132 150 -64 68 -77 88 -72 106
4 12 16 70 28 129 l21 107 -36 73 c-19 40 -52 116 -72 168 -52 132 -93 207
-131 239 l-33 27 97 82 c53 45 106 89 117 96 11 8 17 17 14 21 -4 3 -68 1
-143 -6 -157 -13 -182 -9 -198 29 -7 15 -28 44 -47 65 -33 34 -36 43 -36 95 0
49 -3 57 -20 60 -44 9 -58 32 -128 222 l-50 135 -10 270 c-12 348 -10 448 9
570 9 55 18 116 21 135 l4 35 -26 -47 c-63 -118 -113 -328 -120 -505 -2 -75
-8 -119 -15 -121 -7 -3 -24 7 -38 21 -73 67 -289 185 -373 202 -19 3 -42 9
-51 11 -10 3 -18 1 -18 -4 0 -5 35 -26 78 -46 106 -51 237 -142 266 -186 46
-69 76 -140 96 -222 23 -95 24 -118 9 -118 -31 0 -187 88 -239 134 -80 72
-160 113 -237 122 -42 4 -63 3 -63 -4 0 -6 10 -14 23 -18 32 -10 125 -76 134
-96 17 -37 132 -145 159 -151 16 -3 62 -36 102 -72 40 -36 81 -65 92 -65 42 0
73 -90 46 -133 -16 -24 -77 -44 -116 -38 -25 4 -116 78 -190 153 -38 40 -73
69 -77 65 -4 -4 10 -41 30 -82 l37 -75 -68 -31 c-57 -26 -76 -30 -122 -26 -30
3 -65 8 -77 12 -17 6 -22 2 -25 -17 -2 -16 -10 -24 -28 -26 -21 -2 -47 19
-143 116 -112 114 -119 123 -173 238 -30 65 -70 151 -89 189 -19 39 -39 101
-45 140 -19 121 -91 439 -107 470 -8 17 -45 74 -81 128 -57 84 -70 97 -94 97
l-28 0 21 -52z m1765 -1765 c32 -39 39 -55 42 -105 5 -65 -7 -90 -31 -67 -7 8
-16 30 -19 50 -4 19 -16 56 -28 82 -12 25 -19 51 -15 57 3 5 1 10 -4 10 -6 0
-11 5 -11 10 0 24 30 7 66 -37z m-2 -785 c49 -14 75 -33 31 -22 -36 8 -94 32
-81 33 5 1 27 -4 50 -11z m-354 -47 c0 -5 -14 -21 -31 -35 -27 -23 -40 -26
-104 -26 -76 0 -129 15 -122 34 4 11 13 11 90 -1 30 -4 37 -2 37 11 0 20 7 20
26 1 21 -21 41 -19 54 5 11 20 50 28 50 11z m935 -550 c9 -30 -54 -160 -104
-211 -12 -12 -13 -11 -6 10 4 14 18 46 31 72 13 26 27 66 30 90 9 56 36 78 49
39z"/>
<path d="M1155 2020 c16 -7 17 -9 3 -9 -9 -1 -18 -11 -20 -23 -2 -16 -20 -31
-65 -53 -34 -16 -62 -34 -62 -39 -1 -5 2 -7 5 -4 3 4 17 0 31 -7 14 -7 31 -11
37 -9 7 3 19 -8 27 -23 25 -48 57 -77 72 -65 7 6 31 9 54 8 55 -4 63 16 22 55
-38 36 -30 51 11 21 16 -12 43 -22 59 -22 37 0 52 -24 50 -82 -2 -76 25 -250
49 -310 6 -15 31 -39 54 -54 24 -15 58 -37 75 -48 20 -13 31 -27 28 -36 -3
-10 9 -22 33 -35 29 -16 37 -26 38 -50 1 -17 6 -42 12 -57 6 -16 8 -28 3 -28
-5 0 -7 -15 -4 -34 5 -39 -22 -90 -43 -82 -20 8 -36 -19 -28 -50 4 -15 20 -39
36 -53 25 -20 29 -30 24 -54 -3 -16 -1 -36 4 -42 13 -16 -62 -128 -132 -197
-33 -32 -48 -55 -48 -73 0 -20 -4 -26 -17 -23 -10 2 -19 13 -21 26 -2 12 -10
22 -18 22 -8 0 -12 5 -9 10 3 6 2 10 -3 10 -5 0 -9 -34 -9 -76 1 -63 3 -73 13
-59 15 20 34 12 34 -14 0 -13 7 -18 28 -17 23 1 27 -2 24 -25 -2 -21 4 -29 28
-39 22 -9 31 -21 37 -49 8 -42 7 -54 -15 -101 -8 -19 -23 -63 -32 -98 -18 -67
-13 -75 30 -45 22 16 23 16 17 0 -6 -16 90 -17 1454 -17 1247 0 1460 2 1456
14 -3 8 -13 52 -23 97 -11 54 -26 94 -41 113 -15 18 -21 35 -17 45 4 9 9 32
12 52 3 33 0 39 -45 76 -55 46 -142 93 -173 93 -15 0 -20 7 -20 25 0 14 6 25
13 25 8 0 9 3 1 8 -6 4 -16 17 -23 30 -13 25 -31 29 -31 7 0 -8 -5 -15 -11
-15 -5 0 -8 -4 -5 -9 3 -5 -6 -8 -19 -8 -14 0 -25 3 -25 8 0 18 -21 8 -31 -15
-12 -25 -31 -34 -83 -42 -16 -2 -34 -10 -40 -18 -15 -19 -53 -29 -61 -16 -3 5
-17 10 -31 10 -19 0 -24 -5 -24 -27 l-1 -28 -20 25 c-12 14 -19 33 -16 47 4
22 1 24 -35 27 -7 1 -17 6 -23 13 -5 6 -19 13 -30 15 -16 3 -22 15 -28 58 -7
46 -14 107 -16 143 -1 4 -8 7 -16 7 -8 0 -15 5 -15 10 0 6 -5 10 -11 10 -5 0
-7 -6 -3 -12 5 -10 4 -10 -6 -1 -6 6 -13 35 -14 65 0 29 -4 56 -9 59 -4 3 10
15 32 27 l39 22 -14 63 c-19 80 -53 154 -91 197 -17 19 -45 62 -63 95 -18 33
-39 68 -47 77 -27 30 -186 105 -248 118 -148 29 -206 46 -292 86 -116 53 -207
74 -326 74 -121 0 -336 31 -411 60 -17 6 -35 6 -51 0 -14 -5 -46 -12 -72 -15
-27 -3 -61 -11 -76 -17 -29 -11 -143 -5 -207 12 -19 5 -47 12 -62 15 -18 3
-30 13 -34 30 -8 33 -61 45 -83 19 -17 -20 -73 -25 -118 -10 -23 7 -32 26 -14
26 5 0 17 7 26 16 9 9 59 27 111 39 88 21 134 40 102 43 -132 12 -221 22 -228
27 -5 3 -49 13 -97 21 -48 9 -102 22 -121 30 -19 8 -44 14 -56 13 -20 0 -21
-1 -1 -9z"/>
<path d="M970 1885 c-8 -9 -8 -15 -2 -15 12 0 26 19 19 26 -2 2 -10 -2 -17
-11z"/>
<path d="M851 1809 c-12 -16 -33 -35 -45 -40 -19 -9 -56 -56 -56 -71 0 -9 88
-13 96 -5 4 3 -2 14 -12 24 -17 17 -16 18 12 24 16 3 37 2 46 -3 27 -13 30
-10 23 23 -4 17 -8 37 -9 43 -2 16 -16 36 -25 36 -4 0 -17 -14 -30 -31z"/>
<path d="M670 1497 c0 -55 17 -98 36 -90 16 6 19 49 4 58 -5 3 -10 17 -10 29
0 13 -7 29 -15 36 -13 11 -15 6 -15 -33z"/>
<path d="M3998 1516 c-10 -7 -18 -17 -18 -22 0 -4 -11 -19 -24 -33 -13 -15
-26 -35 -28 -46 -2 -16 5 -20 44 -26 26 -4 62 -19 81 -33 19 -14 41 -26 49
-26 9 0 19 -8 22 -17 4 -10 20 -43 36 -73 37 -66 37 -79 4 -115 -25 -28 -26
-28 -9 -65 14 -31 15 -41 4 -58 -10 -17 -9 -25 8 -52 l21 -33 13 24 c9 16 14
59 14 129 l0 105 -58 115 c-47 92 -134 241 -141 240 0 0 -9 -7 -18 -14z"/>
<path d="M650 1300 c0 -6 8 -22 17 -36 16 -25 16 -26 -13 -50 -16 -13 -99 -59
-184 -102 -124 -61 -166 -88 -211 -132 -63 -63 -133 -181 -208 -351 l-51 -116
0 -221 0 -222 560 0 c466 0 560 2 560 14 0 7 11 29 24 49 13 19 22 38 19 41
-3 2 -1 11 3 18 5 7 9 18 10 23 1 6 15 44 32 85 16 41 32 83 36 93 3 11 15 21
25 24 22 6 17 33 -6 33 -14 0 -50 34 -100 93 -18 22 -27 25 -62 20 -38 -5 -44
-3 -85 39 -43 42 -46 43 -61 26 -12 -15 -19 -16 -35 -8 -25 13 -44 47 -30 55
10 6 27 56 40 118 6 33 5 37 -9 32 -41 -16 -71 -16 -92 -1 -34 23 -32 44 6 56
61 20 52 70 -18 98 -17 7 -17 9 3 31 24 29 25 37 4 45 -8 3 -13 10 -10 15 4 5
-1 11 -10 13 -14 3 -13 7 6 31 12 15 27 27 35 27 7 0 17 6 23 13 8 9 3 12 -24
11 -31 -2 -33 0 -23 18 8 15 8 23 -1 32 -12 12 -16 13 -60 15 -18 0 -29 6 -27
13 1 7 -2 12 -8 13 -22 1 -37 18 -32 36 4 15 0 19 -19 19 -13 0 -24 -5 -24
-10z"/>
</g>
</svg>
