<?xml version="1.0" standalone="no"?>
<!DOCTYPE svg PUBLIC "-//W3C//DTD SVG 20010904//EN"
 "http://www.w3.org/TR/2001/REC-SVG-20010904/DTD/svg10.dtd">
<svg version="1.0" xmlns="http://www.w3.org/2000/svg"
 width="543.000000pt" height="543.000000pt" viewBox="0 0 543.000000 543.000000"
 preserveAspectRatio="xMidYMid meet">
<metadata>
Created by potrace 1.14, written by Peter Selinger 2001-2017
</metadata>
<g transform="translate(0.000000,543.000000) scale(0.100000,-0.100000)"
fill="#000000" stroke="none">
<path d="M927 5288 c38 -68 180 -348 194 -385 7 -18 5 -23 -9 -24 -9 0 -24 -2
-32 -3 -85 -17 -205 -27 -256 -23 -73 7 -95 19 -244 138 -58 46 -149 117 -201
156 -53 40 -106 84 -119 98 -24 26 -50 33 -50 14 0 -15 139 -219 208 -305 253
-317 262 -325 363 -348 41 -9 106 -21 145 -26 38 -4 123 -19 188 -32 l120 -23
32 -70 c104 -228 143 -299 210 -390 l45 -60 -48 -12 c-85 -22 -108 -18 -208
41 -90 52 -180 113 -194 130 -14 16 -41 22 -41 9 0 -5 10 -24 23 -45 12 -20
49 -81 81 -135 85 -140 123 -177 223 -215 46 -17 83 -37 83 -43 0 -6 12 -23
28 -36 15 -13 44 -38 64 -56 20 -17 34 -34 31 -37 -19 -19 -280 8 -362 38 -24
9 -48 16 -53 16 -6 0 -8 -25 -4 -65 13 -139 36 -204 116 -330 36 -57 58 -101
53 -106 -5 -5 -40 -19 -78 -32 -38 -13 -70 -28 -72 -34 -2 -6 40 -33 94 -59
113 -54 115 -51 -56 -79 -396 -66 -563 -176 -565 -370 -1 -81 30 -143 114
-226 66 -66 219 -165 302 -196 24 -9 45 -18 47 -20 2 -1 -14 -26 -35 -55 -22
-29 -52 -72 -67 -96 -16 -25 -32 -40 -39 -36 -6 4 -40 29 -75 56 -73 55 -139
91 -156 85 -6 -2 -12 -33 -14 -73 -2 -38 -7 -98 -11 -134 -4 -36 -5 -79 -1
-97 6 -29 4 -32 -30 -41 -20 -6 -83 -27 -141 -48 -96 -34 -115 -38 -219 -39
-63 -1 -131 2 -150 6 -20 4 -39 5 -43 1 -11 -11 37 -270 61 -331 29 -72 51
-101 111 -147 l50 -38 -37 -18 c-21 -10 -54 -31 -73 -47 l-34 -29 29 -42 c16
-22 36 -45 46 -51 16 -8 16 -13 -7 -71 -42 -103 -33 -255 22 -347 14 -24 15
-36 5 -74 -6 -25 -11 -59 -11 -75 l0 -29 80 -6 c67 -4 95 -12 187 -55 59 -27
116 -52 126 -55 14 -5 8 -16 -38 -60 -63 -61 -72 -90 -25 -81 36 8 83 -3 75
-16 -4 -7 675 -10 1915 -10 l1921 0 -63 63 c-45 46 -72 84 -95 135 l-31 72 37
45 c49 60 106 167 98 187 -3 9 -31 24 -62 33 -83 24 -175 75 -186 103 -13 34
-13 34 35 65 54 34 147 132 193 205 80 124 131 275 140 409 l6 93 -39 35 -38
35 62 63 c34 34 62 67 62 73 0 6 -19 14 -41 17 -61 8 -66 20 -29 59 41 42 123
148 119 152 -2 2 -20 11 -39 21 -63 32 -112 78 -157 147 -46 72 -73 135 -73
174 0 23 3 24 73 24 153 0 337 80 469 203 89 84 134 280 80 352 -26 35 -114
72 -250 105 -198 48 -262 92 -262 181 0 30 -10 61 -35 106 -20 34 -34 63 -31
63 17 0 141 -64 159 -82 21 -21 57 -36 57 -24 0 2 -9 33 -20 68 -21 69 -77
157 -143 225 -28 29 -36 43 -26 46 78 20 190 64 223 87 37 25 96 110 96 138 0
6 -20 10 -44 10 -60 -1 -114 39 -311 229 -137 133 -169 158 -249 199 -50 26
-114 55 -143 64 l-51 16 39 58 c39 59 69 138 69 186 0 44 -40 182 -61 212 -26
36 -35 35 -55 -7 -19 -40 -86 -92 -159 -122 -52 -22 -74 -19 -103 16 -26 32
-90 177 -105 241 -24 100 -26 115 -32 275 -3 83 -8 162 -11 178 l-6 27 -188 0
c-179 0 -188 -1 -193 -20 -4 -17 -13 -20 -69 -20 -41 0 -78 7 -107 20 -36 17
-65 20 -178 20 -124 0 -135 -1 -130 -17 15 -50 52 -141 64 -160 9 -13 51 -36
111 -59 53 -21 128 -49 167 -64 38 -15 72 -33 76 -41 13 -25 29 -113 38 -204
6 -49 17 -119 26 -154 21 -81 17 -85 -95 -74 -191 17 -315 3 -425 -47 -63 -28
-259 -152 -270 -170 -16 -26 -22 -2 -28 103 -6 105 -4 115 19 166 49 109 -2
76 -110 -69 -146 -197 -196 -284 -196 -342 0 -21 -33 -32 -57 -19 -37 20 -216
210 -297 316 -147 190 -212 295 -299 480 -46 99 -90 198 -97 220 -7 22 -21 61
-32 88 l-20 47 -204 0 -203 0 36 -62z"/>
</g>
</svg>
