<?xml version="1.0" encoding="UTF-8"?>
<?xml-stylesheet href="https://cdnjs.cloudflare.com/ajax/libs/font-awesome/6.5.2/css/all.min.css" type="text/css"?>
<svg aria-roledescription="gitGraph" role="graphics-document document" viewBox="-277.828125 -8 593.03759765625 798.2719116210938" height="100%" xmlns="http://www.w3.org/2000/svg" width="593.03759765625" id="graph-div" style="max-width: 100%;" xmlns:xlink="http://www.w3.org/1999/xlink"><style>#graph-div{font-family:"trebuchet ms",verdana,arial,sans-serif;font-size:16px;fill:#ccc;}#graph-div .error-icon{fill:#a44141;}#graph-div .error-text{fill:#ddd;stroke:#ddd;}#graph-div .edge-thickness-normal{stroke-width:2px;}#graph-div .edge-thickness-thick{stroke-width:3.5px;}#graph-div .edge-pattern-solid{stroke-dasharray:0;}#graph-div .edge-pattern-dashed{stroke-dasharray:3;}#graph-div .edge-pattern-dotted{stroke-dasharray:2;}#graph-div .marker{fill:lightgrey;stroke:lightgrey;}#graph-div .marker.cross{stroke:lightgrey;}#graph-div svg{font-family:"trebuchet ms",verdana,arial,sans-serif;font-size:16px;}#graph-div .commit-id,#graph-div .commit-msg,#graph-div .branch-label{fill:lightgrey;color:lightgrey;font-family:'trebuchet ms',verdana,arial,sans-serif;font-family:var(--mermaid-font-family);}#graph-div .branch-label0{fill:#2c2c2c;}#graph-div .commit0{stroke:#ffcb5e;fill:#ffcb5e;}#graph-div .commit-highlight0{stroke:rgb(133.6571428571, 129.7428571428, 129.7428571428);fill:rgb(133.6571428571, 129.7428571428, 129.7428571428);}#graph-div .label0{fill:#ffcb5e;}#graph-div .arrow0{stroke:#ffcb5e;}#graph-div .branch-label1{fill:lightgrey;}#graph-div .commit1{stroke:#ca5eff;fill:#ca5eff;}#graph-div .commit-highlight1{stroke:rgb(93.5483870969, 221.4516129033, 139.677419355);fill:rgb(93.5483870969, 221.4516129033, 139.677419355);}#graph-div .label1{fill:#ca5eff;}#graph-div .arrow1{stroke:#ca5eff;}#graph-div .branch-label2{fill:lightgrey;}#graph-div .commit2{stroke:#76a3ff;fill:#76a3ff;}#graph-div .commit-highlight2{stroke:rgb(149.4437086091, 117.6092715231, 107.5562913906);fill:rgb(149.4437086091, 117.6092715231, 107.5562913906);}#graph-div .label2{fill:#76a3ff;}#graph-div .arrow2{stroke:#76a3ff;}#graph-div .branch-label3{fill:#2c2c2c;}#graph-div .commit3{stroke:#ff795e;fill:#ff795e;}#graph-div .commit-highlight3{stroke:rgb(99.9811320754, 162.7735849057, 202.0188679245);fill:rgb(99.9811320754, 162.7735849057, 202.0188679245);}#graph-div .label3{fill:#ff795e;}#graph-div .arrow3{stroke:#ff795e;}#graph-div .branch-label4{fill:lightgrey;}#graph-div .commit4{stroke:hsl(0, 83.3333333333%, 43.5294117647%);fill:hsl(0, 83.3333333333%, 43.5294117647%);}#graph-div .commit-highlight4{stroke:rgb(51.5000000001, 236.5, 236.5);fill:rgb(51.5000000001, 236.5, 236.5);}#graph-div .label4{fill:hsl(0, 83.3333333333%, 43.5294117647%);}#graph-div .arrow4{stroke:hsl(0, 83.3333333333%, 43.5294117647%);}#graph-div .branch-label5{fill:lightgrey;}#graph-div .commit5{stroke:hsl(289.1666666667, 100%, 24.1176470588%);fill:hsl(289.1666666667, 100%, 24.1176470588%);}#graph-div .commit-highlight5{stroke:rgb(154.2083333334, 255, 132.0000000001);fill:rgb(154.2083333334, 255, 132.0000000001);}#graph-div .label5{fill:hsl(289.1666666667, 100%, 24.1176470588%);}#graph-div .arrow5{stroke:hsl(289.1666666667, 100%, 24.1176470588%);}#graph-div .branch-label6{fill:lightgrey;}#graph-div .commit6{stroke:hsl(35.1315789474, 98.7012987013%, 40.1960784314%);fill:hsl(35.1315789474, 98.7012987013%, 40.1960784314%);}#graph-div .commit-highlight6{stroke:rgb(51.331168831, 135.1948051946, 253.6688311688);fill:rgb(51.331168831, 135.1948051946, 253.6688311688);}#graph-div .label6{fill:hsl(35.1315789474, 98.7012987013%, 40.1960784314%);}#graph-div .arrow6{stroke:hsl(35.1315789474, 98.7012987013%, 40.1960784314%);}#graph-div .branch-label7{fill:lightgrey;}#graph-div .commit7{stroke:hsl(106.1538461538, 84.4155844156%, 35.0980392157%);fill:hsl(106.1538461538, 84.4155844156%, 35.0980392157%);}#graph-div .commit-highlight7{stroke:rgb(206.1818181817, 89.948051948, 241.051948052);fill:rgb(206.1818181817, 89.948051948, 241.051948052);}#graph-div .label7{fill:hsl(106.1538461538, 84.4155844156%, 35.0980392157%);}#graph-div .arrow7{stroke:hsl(106.1538461538, 84.4155844156%, 35.0980392157%);}#graph-div .branch{stroke-width:1;stroke:lightgrey;stroke-dasharray:2;}#graph-div .commit-label{font-size:12px;fill:rgb(183.8476190475, 181.5523809523, 181.5523809523);}#graph-div .commit-label-bkg{font-size:12px;fill:hsl(180, 1.5873015873%, 28.3529411765%);opacity:0.5;}#graph-div .tag-label{font-size:10px;fill:#e0dfdf;}#graph-div .tag-label-bkg{fill:#1f2020;stroke:#cccccc;}#graph-div .tag-hole{fill:#ccc;}#graph-div .commit-merge{stroke:#1f2020;fill:#1f2020;}#graph-div .commit-reverse{stroke:#1f2020;fill:#1f2020;stroke-width:3;}#graph-div .commit-highlight-inner{stroke:#1f2020;fill:#1f2020;}#graph-div .arrow{stroke-width:8;stroke-linecap:round;fill:none;}#graph-div .gitTitleText{text-anchor:middle;font-size:18px;fill:#ccc;}#graph-div :root{--mermaid-font-family:"trebuchet ms",verdana,arial,sans-serif;}</style><g></g><g class="commit-bullets"></g><g class="commit-labels"></g><g><line class="branch branch0" y2="780" x2="0" y1="30" x1="0"></line><rect height="22.59375" width="88.796875" y="0" x="-45.3984375" ry="4" rx="4" class="branchLabelBkg label0"></rect><g class="branchLabel"><g transform="translate(-40.3984375, 0)" class="label branch-label0"><text><tspan class="row" x="0" dy="1em" xml:space="preserve">Education</tspan></text></g></g><line class="branch branch1" y2="780" x2="85.3984375" y1="30" x1="85.3984375"></line><rect height="22.59375" width="89.921875" y="0" x="39.4375" ry="4" rx="4" class="branchLabelBkg label1"></rect><g class="branchLabel"><g transform="translate(44.4375, 0)" class="label branch-label1"><text><tspan class="row" x="0" dy="1em" xml:space="preserve">Internship</tspan></text></g></g><line class="branch branch2" y2="780" x2="171.359375" y1="30" x1="171.359375"></line><rect height="22.59375" width="85.15625" y="0" x="127.78125" ry="4" rx="4" class="branchLabelBkg label2"></rect><g class="branchLabel"><g transform="translate(132.78125, 0)" class="label branch-label2"><text><tspan class="row" x="0" dy="1em" xml:space="preserve">Exchange</tspan></text></g></g><line class="branch branch3" y2="780" x2="254.9375" y1="30" x1="254.9375"></line><rect height="22.59375" width="85.265625" y="0" x="211.3046875" ry="4" rx="4" class="branchLabelBkg label3"></rect><g class="branchLabel"><g transform="translate(216.3046875, 0)" class="label branch-label3"><text><tspan class="row" x="0" dy="1em" xml:space="preserve">Full Time</tspan></text></g></g></g><g class="commit-arrows"><path class="arrow arrow0" d="M 0 40 L 0 90"></path><path class="arrow arrow1" d="M 0 90 L 65.3984375 90 A 20 20, 0, 0, 1, 85.3984375 110 L 85.3984375 140"></path><path class="arrow arrow0" d="M 0 90 L 0 190"></path><path class="arrow arrow1" d="M 85.3984375 140 L 85.3984375 240"></path><path class="arrow arrow0" d="M 0 190 L 0 290"></path><path class="arrow arrow2" d="M 0 290 L 151.359375 290 A 20 20, 0, 0, 1, 171.359375 310 L 171.359375 340"></path><path class="arrow arrow0" d="M 0 640 L 0 690"></path><path class="arrow arrow0" d="M 0 690 L 0 390"></path><path class="arrow arrow2" d="M 171.359375 340 L 171.359375 370 A 20 20, 0, 0, 1, 151.359375 390 L 0 390"></path><path class="arrow arrow0" d="M 0 390 L 0 440"></path><path class="arrow arrow1" d="M 85.3984375 240 L 85.3984375 490"></path><path class="arrow arrow0" d="M 0 440 L 0 540"></path><path class="arrow arrow1" d="M 85.3984375 490 L 85.3984375 590"></path><path class="arrow arrow0" d="M 0 540 L 0 640"></path><path class="arrow arrow1" d="M 85.3984375 590 L 85.3984375 620 A 20 20, 0, 0, 1, 65.3984375 640 L 0 640"></path><path class="arrow arrow3" d="M 0 690 L 234.9375 690 A 20 20, 0, 0, 1, 254.9375 710 L 254.9375 740"></path></g><g class="commit-bullets"><rect class="commit Shanghai Jiao Tong University commit-highlight0 commit-highlight-outer" width="20" height="20" y="30" x="-10"></rect><rect class="commit Shanghai Jiao Tong University commit0 commit-highlight-inner" width="12" height="12" y="34" x="-6"></rect><circle class="commit Sophomore commit0" r="10" cy="90" cx="0"></circle><circle class="commit Segway commit1" r="10" cy="140" cx="85.3984375"></circle><circle class="commit Junior commit0" r="10" cy="190" cx="0"></circle><circle class="commit AMD commit1" r="10" cy="240" cx="85.3984375"></circle><circle class="commit Senior commit0" r="10" cy="290" cx="0"></circle><circle class="commit University of Wisconsin - Madision commit2" r="10" cy="340" cx="171.359375"></circle><circle class="commit B.Eng. in Electrical and Computer Engineering commit0" r="9" cy="390" cx="0"></circle><circle class="commit commit-merge B.Eng. in Electrical and Computer Engineering commit0" r="6" cy="390" cx="0"></circle><rect class="commit University of Michigan commit-highlight0 commit-highlight-outer" width="20" height="20" y="430" x="-10"></rect><rect class="commit University of Michigan commit0 commit-highlight-inner" width="12" height="12" y="434" x="-6"></rect><circle class="commit Valeo commit1" r="10" cy="490" cx="85.3984375"></circle><circle class="commit 2nd Year commit0" r="10" cy="540" cx="0"></circle><circle class="commit Graduate Student Instructor commit1" r="10" cy="590" cx="85.3984375"></circle><circle class="commit M.Sc. in Information Science commit0" r="9" cy="640" cx="0"></circle><circle class="commit commit-merge M.Sc. in Information Science commit0" r="6" cy="640" cx="0"></circle><circle class="commit End commit0" r="10" cy="690" cx="0"></circle><path class="commit commit-reverse End commit0" d="M -5,685L5,695M-5,695L5,685"></path><circle class="commit Apple commit3" r="10" cy="740" cx="254.9375"></circle></g><g class="commit-labels"><g><rect height="17.953125" width="164.015625" y="28" x="-181.015625" class="commit-label-bkg"></rect><text class="commit-label" y="41.953125" x="-176.015625">Shanghai Jiao Tong University</text></g><polygon transform="translate(12,12) rotate(45, 0,30)" points="0,32
            0,28
            10,22.1875
            49.140625,22.1875
            49.140625,37.8125
            10,37.8125" class="tag-label-bkg"></polygon><circle transform="translate(12,12) rotate(45, 0,30)" class="tag-hole" r="1.5" cy="30" cx="2"></circle><text transform="translate(14,14) rotate(45, 0,30)" x="5" class="tag-label" y="33">2018.09</text><g><rect height="17.953125" width="63.515625" y="78" x="-80.515625" class="commit-label-bkg"></rect><text class="commit-label" y="91.953125" x="-75.515625">Sophomore</text></g><g><rect height="17.953125" width="43.5" y="128" x="24.8984375" class="commit-label-bkg"></rect><text class="commit-label" y="141.953125" x="29.8984375">Segway</text></g><polygon transform="translate(12,12) rotate(45, 85.3984375,130)" points="85.3984375,132
            85.3984375,128
            95.3984375,122.1875
            134.5390625,122.1875
            134.5390625,137.8125
            95.3984375,137.8125" class="tag-label-bkg"></polygon><circle transform="translate(12,12) rotate(45, 85.3984375,130)" class="tag-hole" r="1.5" cy="130" cx="87.3984375"></circle><text transform="translate(14,14) rotate(45, 85.3984375,130)" x="90.3984375" class="tag-label" y="133">2020.01</text><g><rect height="17.953125" width="37.359375" y="178" x="-54.359375" class="commit-label-bkg"></rect><text class="commit-label" y="191.953125" x="-49.359375">Junior</text></g><g><rect height="17.953125" width="26.953125" y="228" x="41.4453125" class="commit-label-bkg"></rect><text class="commit-label" y="241.953125" x="46.4453125">AMD</text></g><polygon transform="translate(12,12) rotate(45, 85.3984375,230)" points="85.3984375,232
            85.3984375,228
            95.3984375,222.1875
            134.5390625,222.1875
            134.5390625,237.8125
            95.3984375,237.8125" class="tag-label-bkg"></polygon><circle transform="translate(12,12) rotate(45, 85.3984375,230)" class="tag-hole" r="1.5" cy="230" cx="87.3984375"></circle><text transform="translate(14,14) rotate(45, 85.3984375,230)" x="90.3984375" class="tag-label" y="233">2020.12</text><g><rect height="17.953125" width="37.40625" y="278" x="-54.40625" class="commit-label-bkg"></rect><text class="commit-label" y="291.953125" x="-49.40625">Senior</text></g><g><rect height="17.953125" width="186.03125" y="328" x="-31.671875" class="commit-label-bkg"></rect><text class="commit-label" y="341.953125" x="-26.671875">University of Wisconsin - Madision</text></g><polygon transform="translate(12,12) rotate(45, 171.359375,330)" points="171.359375,332
            171.359375,328
            181.359375,322.1875
            220.5,322.1875
            220.5,337.8125
            181.359375,337.8125" class="tag-label-bkg"></polygon><circle transform="translate(12,12) rotate(45, 171.359375,330)" class="tag-hole" r="1.5" cy="330" cx="173.359375"></circle><text transform="translate(14,14) rotate(45, 171.359375,330)" x="176.359375" class="tag-label" y="333">2022.01</text><g><rect height="17.953125" width="252.828125" y="378" x="-269.828125" class="commit-label-bkg"></rect><text class="commit-label" y="391.953125" x="-264.828125">B.Eng. in Electrical and Computer Engineering</text></g><polygon transform="translate(12,12) rotate(45, 0,380)" points="0,382
            0,378
            10,372.1875
            49.140625,372.1875
            49.140625,387.8125
            10,387.8125" class="tag-label-bkg"></polygon><circle transform="translate(12,12) rotate(45, 0,380)" class="tag-hole" r="1.5" cy="380" cx="2"></circle><text transform="translate(14,14) rotate(45, 0,380)" x="5" class="tag-label" y="383">2022.06</text><g><rect height="17.953125" width="122.65625" y="428" x="-139.65625" class="commit-label-bkg"></rect><text class="commit-label" y="441.953125" x="-134.65625">University of Michigan</text></g><polygon transform="translate(12,12) rotate(45, 0,430)" points="0,432
            0,428
            10,422.1875
            43.90625,422.1875
            43.90625,437.8125
            10,437.8125" class="tag-label-bkg"></polygon><circle transform="translate(12,12) rotate(45, 0,430)" class="tag-hole" r="1.5" cy="430" cx="2"></circle><text transform="translate(14,14) rotate(45, 0,430)" x="5" class="tag-label" y="433">2020.8</text><g><rect height="17.953125" width="33.890625" y="478" x="34.5078125" class="commit-label-bkg"></rect><text class="commit-label" y="491.953125" x="39.5078125">Valeo</text></g><polygon transform="translate(12,12) rotate(45, 85.3984375,480)" points="85.3984375,482
            85.3984375,478
            95.3984375,472.1875
            134.5390625,472.1875
            134.5390625,487.8125
            95.3984375,487.8125" class="tag-label-bkg"></polygon><circle transform="translate(12,12) rotate(45, 85.3984375,480)" class="tag-hole" r="1.5" cy="480" cx="87.3984375"></circle><text transform="translate(14,14) rotate(45, 85.3984375,480)" x="90.3984375" class="tag-label" y="483">2023.06</text><g><rect height="17.953125" width="51.515625" y="528" x="-68.515625" class="commit-label-bkg"></rect><text class="commit-label" y="541.953125" x="-63.515625">2nd Year</text></g><g><rect height="17.953125" width="155.34375" y="578" x="-86.9453125" class="commit-label-bkg"></rect><text class="commit-label" y="591.953125" x="-81.9453125">Graduate Student Instructor</text></g><polygon transform="translate(12,12) rotate(45, 85.3984375,580)" points="85.3984375,582
            85.3984375,578
            95.3984375,572.1875
            134.5390625,572.1875
            134.5390625,587.8125
            95.3984375,587.8125" class="tag-label-bkg"></polygon><circle transform="translate(12,12) rotate(45, 85.3984375,580)" class="tag-hole" r="1.5" cy="580" cx="87.3984375"></circle><text transform="translate(14,14) rotate(45, 85.3984375,580)" x="90.3984375" class="tag-label" y="583">2023.09</text><g><rect height="17.953125" width="157.46875" y="628" x="-174.46875" class="commit-label-bkg"></rect><text class="commit-label" y="641.953125" x="-169.46875">M.Sc. in Information Science</text></g><polygon transform="translate(12,12) rotate(45, 0,630)" points="0,632
            0,628
            10,622.1875
            49.140625,622.1875
            49.140625,637.8125
            10,637.8125" class="tag-label-bkg"></polygon><circle transform="translate(12,12) rotate(45, 0,630)" class="tag-hole" r="1.5" cy="630" cx="2"></circle><text transform="translate(14,14) rotate(45, 0,630)" x="5" class="tag-label" y="633">2024.05</text><g><rect height="17.953125" width="23.671875" y="678" x="-40.671875" class="commit-label-bkg"></rect><text class="commit-label" y="691.953125" x="-35.671875">End</text></g><g><rect height="17.953125" width="34.546875" y="728" x="203.390625" class="commit-label-bkg"></rect><text class="commit-label" y="741.953125" x="208.390625">Apple</text></g><polygon transform="translate(12,12) rotate(45, 254.9375,730)" points="254.9375,732
            254.9375,728
            264.9375,722.1875
            304.078125,722.1875
            304.078125,737.8125
            264.9375,737.8125" class="tag-label-bkg"></polygon><circle transform="translate(12,12) rotate(45, 254.9375,730)" class="tag-hole" r="1.5" cy="730" cx="256.9375"></circle><text transform="translate(14,14) rotate(45, 254.9375,730)" x="259.9375" class="tag-label" y="733">2024.07</text></g></svg>